{"title":"The.Borgias.S02E05.HDTV.XviD-Atilla82","uid":7261452,"size":420039198,"categoryP":"video","categoryS":"tv_shows","magnet":"?xt=urn:btih:b26cdfa9c83d9180c5bb33c4cc318587549e1a13&amp;dn=The.Borgias.S02E05.HDTV.XviD-Atilla82&amp;tr=udp%3A%2F%2Ftracker.openbittorrent.com%3A80&amp;tr=udp%3A%2F%2Fopen.demonii.com%3A1337&amp;tr=udp%3A%2F%2Ftracker.coppersurfer.tk%3A6969&amp;tr=udp%3A%2F%2Fexodus.desync.com%3A6969","seeders":1,"leechers":0,"uploader":"Atilla82","files":3,"time":1336743222,"description":"The Borgias S02E05 HDTV XviD Atilla82\n\n\n\n\nThe Borgias (2011)\n\nThe saga of a crime family in 1492 Italy.\n &lt;a href=&quot;\nhttp://www.imdb.com/title/tt1582457/&quot; rel=&quot;nofollow&quot; target=&quot;_NEW&quot;&gt;\nhttp://www.imdb.com/title/tt1582457/&lt;/a&gt;\n\n\n\n\nlanguage: English\n\nscreenshots included in torrent\n\n\n\n\nGeneral\nComplete name : The.Borgias.S02E05.HDTV.XviD-Atilla82.avi\nFormat : AVI\nFormat/Info : Audio Video Interleave\nFile size : 400 MiB\nDuration : 53mn 18s\nOverall bit rate : 1 050 Kbps\nWriting application : Lavf52.61.0\nVideo\nID : 0\nFormat : MPEG-4 Visual\nFormat profile : Advanced Simple@L5\nFormat settings, BVOP : No\nFormat settings, QPel : Yes\nFormat settings, GMC : No warppoints\nFormat settings, Matrix : Default (H.263)\nCodec ID : XVID\nCodec ID/Hint : XviD\nDuration : 53mn 17s\nBit rate : 910 Kbps\nWidth : 680 pixels\nHeight : 380 pixels\nDisplay aspect ratio : 16:9\nFrame rate : 23.976 fps\nColor space : YUV\nChroma subsampling : 4:2:0\nBit depth : 8 bits\nScan type : Progressive\nCompression mode : Lossy\nBits/(Pixel*Frame) : 0.147\nStream size : 347 MiB (87%)\nWriting library : XviD 64\nAudio\nID : 1\nFormat : MPEG Audio\nFormat version : Version 1\nFormat profile : Layer 3\nCodec ID : 55\nCodec ID/Hint : MP3\nDuration : 53mn 18s\nBit rate mode : Constant\nBit rate : 128 Kbps\nChannel(s) : 2 channels\nSampling rate : 48.0 KHz\nCompression mode : Lossy\nStream size : 48.8 MiB (12%)\nAlignment : Aligned on interleaves\nInterleave, duration : 24 ms (0.58 video frame)\n\n\n\nSCREENSHOTS &lt;a href=&quot;\nhttp://www.pohrani.com/f/3s/tn/1cZr5RRa/theborgiass02e05-screens.jpg&quot; rel=&quot;nofollow&quot; target=&quot;_NEW&quot;&gt;\nhttp://www.pohrani.com/f/3s/tn/1cZr5RRa/theborgiass02e05-screens.jpg&lt;/a&gt;\n","torrent":{"xt":"urn:btih:b26cdfa9c83d9180c5bb33c4cc318587549e1a13","amp;dn":"The.Borgias.S02E05.HDTV.XviD-Atilla82","amp;tr":["udp%3A%2F%2Ftracker.openbittorrent.com%3A80","udp%3A%2F%2Fopen.demonii.com%3A1337","udp%3A%2F%2Ftracker.coppersurfer.tk%3A6969","udp%3A%2F%2Fexodus.desync.com%3A6969"],"infoHash":"b26cdfa9c83d9180c5bb33c4cc318587549e1a13","infoHashBuffer":{"type":"Buffer","data":[178,108,223,169,200,61,145,128,197,187,51,196,204,49,133,135,84,158,26,19]},"announce":[],"urlList":[]}}